Coordinates
version=1
nRows=49
nColumns=12
inDegrees=yes

Units are S.I. units (second, meters, Newtons, ...)
Angles are in degrees

endheader
time	SC_y	SC_z	SC_x	AC_y	AC_z	AC_x	GH_y	GH_z	GH_yy	EL_x	PS_y
       0.0              -26.49         -2.765           79.7          37.42         -3.219         -7.494         -53.36          22.64         -151.9          126.5          63.32
   0.03973              -26.49         -2.765           79.7          37.42         -3.218          -7.49         -53.37          22.65         -151.8          126.5          63.31
   0.07947              -26.49         -2.765          79.69          37.42         -3.217         -7.487         -53.38          22.65         -151.8          126.5           63.3
    0.1192              -26.49         -2.765          79.69          37.42         -3.216         -7.483         -53.39          22.66         -151.8          126.5           63.3
    0.1589              -26.49         -2.765          79.69          37.41         -3.215         -7.478          -53.4          22.67         -151.7          126.5          63.29
    0.1987              -26.49         -2.765          79.69          37.41         -3.213         -7.474         -53.41          22.68         -151.7          126.5          63.28
    0.2384              -26.49         -2.765          79.69          37.41         -3.212         -7.469         -53.42           22.7         -151.6          126.5          63.27
    0.2781              -26.49         -2.765          79.69          37.41         -3.211         -7.464         -53.43          22.71         -151.6          126.5          63.26
    0.3179              -26.49         -2.765          79.68          37.41         -3.209         -7.458         -53.44          22.72         -151.6          126.4          63.25
    0.3576              -26.49         -2.765          79.68          37.41         -3.207         -7.452         -53.45          22.74         -151.5          126.4          63.24
    0.3973              -26.49         -2.765          79.68           37.4         -3.205         -7.446         -53.47          22.75         -151.4          126.4          63.23
    0.4371              -26.49         -2.765          79.67           37.4         -3.204         -7.439         -53.48          22.77         -151.4          126.4          63.22
    0.4768              -26.49         -2.766          79.67           37.4         -3.201         -7.431          -53.5          22.78         -151.3          126.4           63.2
    0.5165              -26.49         -2.766          79.67           37.4         -3.199         -7.423         -53.52           22.8         -151.2          126.4          63.19
    0.5563              -26.49         -2.766          79.66           37.4         -3.197         -7.415         -53.53          22.82         -151.2          126.4          63.17
     0.596              -26.49         -2.766          79.66          37.39         -3.194         -7.405         -53.56          22.85         -151.1          126.4          63.16
    0.6357              -26.49         -2.766          79.66          37.39         -3.191         -7.395         -53.58          22.87         -151.0          126.4          63.14
    0.6755              -26.49         -2.766          79.65          37.39         -3.188         -7.384          -53.6           22.9         -150.9          126.3          63.12
    0.7152              -26.49         -2.766          79.65          37.38         -3.185         -7.372         -53.63          22.92         -150.8          126.3           63.1
    0.7549              -26.49         -2.766          79.64          37.38         -3.181         -7.358         -53.66          22.96         -150.7          126.3          63.07
    0.7947              -26.48         -2.766          79.63          37.37         -3.177         -7.344         -53.69          22.99         -150.5          126.3          63.05
    0.8344              -26.48         -2.767          79.63          37.37         -3.172         -7.327         -53.72          23.03         -150.4          126.3          63.02
    0.8741              -26.48         -2.767          79.62          37.36         -3.167          -7.31         -53.76          23.07         -150.2          126.2          62.98
    0.9139              -26.48         -2.767          79.61          37.36         -3.161          -7.29          -53.8          23.12         -150.0          126.2          62.95
    0.9536              -26.48         -2.767           79.6          37.35         -3.155         -7.268         -53.85          23.17         -149.9          126.2          62.91
    0.9933              -26.48         -2.768          79.59          37.34         -3.148         -7.243          -53.9          23.22         -149.6          126.1          62.87
     1.033              -26.48         -2.768          79.58          37.34          -3.14         -7.216         -53.96          23.29         -149.4          126.1          62.82
     1.073              -26.48         -2.768          79.57          37.33         -3.132         -7.185         -54.03          23.36         -149.1          126.1          62.76
     1.113              -26.48         -2.769          79.55          37.32         -3.122          -7.15          -54.1          23.44         -148.8          126.0           62.7
     1.152              -26.48         -2.769          79.54           37.3         -3.111          -7.11         -54.19          23.53         -148.4          126.0          62.63
     1.192              -26.48          -2.77          79.52          37.29         -3.098         -7.065         -54.28          23.64         -148.0          125.9          62.55
     1.232              -26.48          -2.77           79.5          37.28         -3.083         -7.013          -54.4          23.76         -147.6          125.8          62.45
     1.271              -26.48         -2.771          79.47          37.26         -3.066         -6.953         -54.53           23.9         -147.0          125.7          62.35
     1.311              -26.48         -2.771          79.44          37.24         -3.047         -6.884         -54.67          24.07         -146.4          125.6          62.22
     1.351              -26.47         -2.772          79.41          37.21         -3.023         -6.802         -54.85          24.26         -145.7          125.5          62.07
     1.391              -26.47         -2.773          79.37          37.18         -2.996         -6.706         -55.06          24.48         -144.8          125.4           61.9
      1.43              -26.47         -2.775          79.32          37.15         -2.964         -6.592          -55.3          24.75         -143.8          125.2           61.7
      1.47              -26.47         -2.776          79.26          37.11         -2.925         -6.455         -55.59          25.07         -142.6          125.0          61.45
      1.51              -26.46         -2.778          79.19          37.06         -2.878          -6.29         -55.95          25.45         -141.1          124.8          61.15
      1.55              -26.46          -2.78          79.11           37.0         -2.821         -6.088         -56.38          25.93         -139.3          124.5          60.79
     1.589              -26.45         -2.783           79.0          36.92         -2.751         -5.838         -56.92          26.51         -137.1          124.2          60.34
     1.629              -26.45         -2.786          78.87          36.83         -2.663         -5.527         -57.59          27.24         -134.3          123.7          59.79
     1.669              -26.44          -2.79          78.71          36.71         -2.552         -5.135         -58.43          28.16         -130.8          123.2          59.08
     1.709              -26.43         -2.796           78.5          36.56         -2.411         -4.636          -59.5          29.32         -126.3          122.5          58.19
     1.748              -26.41         -2.803          78.23          36.37          -2.23         -3.999         -60.87          30.81         -120.6          121.6          57.04
     1.788              -26.39         -2.812          77.89          36.13         -1.999          -3.18         -62.62          32.73         -113.3          120.5          55.57
     1.828              -26.37         -2.823          77.45          35.81         -1.703         -2.134         -64.87          35.17         -103.9          119.0           53.7
     1.867              -26.34         -2.837           76.9          35.42         -1.331        -0.8197         -67.69          38.25         -92.15          117.2          51.34
     1.907              -26.31         -2.855          76.23          34.94        -0.8777         0.7825         -71.13           42.0         -77.81          114.9          48.46
